# xmcd
#
# Track frame offsets:
#	150
#	10897
#	23682
#	34528
#	51093
#	68429
#	95692
#	108456
#	124050
#	145261
#	160176
#	171903
#	190406
#	206179
#	225677
#	241629
#	280466
#
# Disc length: 4023 seconds
#
# Revision: 0
# Processed by: cddbd v1.5.2PL0 Copyright (c) Steve Scherf et al.
# Submitted via: dBpowerAMP V4.0
#
DISCID=e70fb511
DTITLE=Commander Cody and His Lost Planet Airmen - 1975-07-26 [CD2]
DYEAR=1900
DGENRE=Country Rock
TTITLE0=Tequila
TTITLE1=Good Rockin' Tonight
TTITLE2=Six Pack To Go
TTITLE3=Been To Georgia On A Fast Train
TTITLE4=House Of Blue Lights
TTITLE5=Mama Hated Diesels
TTITLE6=I Ain't Never
TTITLE7=I Flew Over Our House
TTITLE8=Beat Me Daddy Eight To The Bar
TTITLE9=Riot In Cell Block #9
TTITLE10=Be-Bop-A-Lula
TTITLE11=Too Much Fun
TTITLE12=Jailhouse Rock
TTITLE13=Lost In The Ozone
TTITLE14=Hard Headed Woman
TTITLE15=Going To Chicago
TTITLE16=What's Wrong With You?
EXTD=
EXTT0=
EXTT1=
EXTT2=
EXTT3=
EXTT4=
EXTT5=
EXTT6=
EXTT7=
EXTT8=
EXTT9=
EXTT10=
EXTT11=
EXTT12=
EXTT13=
EXTT14=
EXTT15=
EXTT16=
PLAYORDER=
